0
SECTION
2
HEADER
9
$INSUNITS
70
4
0
ENDSEC
0
SECTION
2
TABLES
0
TABLE
2
LTYPE
0
LTYPE
72
65
70
64
2
CONTINUOUS
3
______
73
0
40
0
0
ENDTAB
0
TABLE
2
LAYER
0
ENDTAB
0
ENDSEC
0
SECTION
2
ENTITIES
0
LINE
8
0
10
60.175
20
-2.525
11
73.175
21
-2.525
0
LINE
8
0
10
60.175
20
-16.525
11
73.175
21
-16.525
0
LINE
8
0
10
59.675
20
-3.025
11
59.675
21
-16.025
0
LINE
8
0
10
73.675
20
-3.025
11
73.675
21
-16.025
0
ARC
8
0
10
60.175
20
-3.025
40
0.5
50
90
51
180
0
ARC
8
0
10
73.175
20
-3.025
40
0.5
50
0
51
90
0
ARC
8
0
10
60.175
20
-16.025
40
0.5
50
180
51
270
0
ARC
8
0
10
73.175
20
-16.025
40
0.5
50
270
51
0
0
LINE
8
0
10
41.125
20
-7.2875
11
54.125
21
-7.2875
0
LINE
8
0
10
41.125
20
-21.2875
11
54.125
21
-21.2875
0
LINE
8
0
10
40.625
20
-7.7875
11
40.625
21
-20.7875
0
LINE
8
0
10
54.625
20
-7.7875
11
54.625
21
-20.7875
0
ARC
8
0
10
41.125
20
-7.7875
40
0.5
50
90
51
180
0
ARC
8
0
10
54.125
20
-7.7875
40
0.5
50
0
51
90
0
ARC
8
0
10
41.125
20
-20.7875
40
0.5
50
180
51
270
0
ARC
8
0
10
54.125
20
-20.7875
40
0.5
50
270
51
0
0
LINE
8
0
10
79.225
20
-7.2875
11
92.225
21
-7.2875
0
LINE
8
0
10
79.225
20
-21.2875
11
92.225
21
-21.2875
0
LINE
8
0
10
78.725
20
-7.7875
11
78.725
21
-20.7875
0
LINE
8
0
10
92.725
20
-7.7875
11
92.725
21
-20.7875
0
ARC
8
0
10
79.225
20
-7.7875
40
0.5
50
90
51
180
0
ARC
8
0
10
92.225
20
-7.7875
40
0.5
50
0
51
90
0
ARC
8
0
10
79.225
20
-20.7875
40
0.5
50
180
51
270
0
ARC
8
0
10
92.225
20
-20.7875
40
0.5
50
270
51
0
0
LINE
8
0
10
98.275
20
-7.2875
11
111.275
21
-7.2875
0
LINE
8
0
10
98.275
20
-21.2875
11
111.275
21
-21.2875
0
LINE
8
0
10
97.775
20
-7.7875
11
97.775
21
-20.7875
0
LINE
8
0
10
111.775
20
-7.7875
11
111.775
21
-20.7875
0
ARC
8
0
10
98.275
20
-7.7875
40
0.5
50
90
51
180
0
ARC
8
0
10
111.275
20
-7.7875
40
0.5
50
0
51
90
0
ARC
8
0
10
98.275
20
-20.7875
40
0.5
50
180
51
270
0
ARC
8
0
10
111.275
20
-20.7875
40
0.5
50
270
51
0
0
LINE
8
0
10
3.025
20
-16.8125
11
16.025
21
-16.8125
0
LINE
8
0
10
3.025
20
-30.8125
11
16.025
21
-30.8125
0
LINE
8
0
10
2.525
20
-17.3125
11
2.525
21
-30.3125
0
LINE
8
0
10
16.525
20
-17.3125
11
16.525
21
-30.3125
0
ARC
8
0
10
3.025
20
-17.3125
40
0.5
50
90
51
180
0
ARC
8
0
10
16.025
20
-17.3125
40
0.5
50
0
51
90
0
ARC
8
0
10
3.025
20
-30.3125
40
0.5
50
180
51
270
0
ARC
8
0
10
16.025
20
-30.3125
40
0.5
50
270
51
0
0
LINE
8
0
10
22.075
20
-16.8125
11
35.075
21
-16.8125
0
LINE
8
0
10
22.075
20
-30.8125
11
35.075
21
-30.8125
0
LINE
8
0
10
21.575
20
-17.3125
11
21.575
21
-30.3125
0
LINE
8
0
10
35.575
20
-17.3125
11
35.575
21
-30.3125
0
ARC
8
0
10
22.075
20
-17.3125
40
0.5
50
90
51
180
0
ARC
8
0
10
35.075
20
-17.3125
40
0.5
50
0
51
90
0
ARC
8
0
10
22.075
20
-30.3125
40
0.5
50
180
51
270
0
ARC
8
0
10
35.075
20
-30.3125
40
0.5
50
270
51
0
0
LINE
8
0
10
60.175
20
-21.575
11
73.175
21
-21.575
0
LINE
8
0
10
60.175
20
-35.575
11
73.175
21
-35.575
0
LINE
8
0
10
59.675
20
-22.075
11
59.675
21
-35.075
0
LINE
8
0
10
73.675
20
-22.075
11
73.675
21
-35.075
0
ARC
8
0
10
60.175
20
-22.075
40
0.5
50
90
51
180
0
ARC
8
0
10
73.175
20
-22.075
40
0.5
50
0
51
90
0
ARC
8
0
10
60.175
20
-35.075
40
0.5
50
180
51
270
0
ARC
8
0
10
73.175
20
-35.075
40
0.5
50
270
51
0
0
LINE
8
0
10
41.125
20
-26.3375
11
54.125
21
-26.3375
0
LINE
8
0
10
41.125
20
-40.3375
11
54.125
21
-40.3375
0
LINE
8
0
10
40.625
20
-26.8375
11
40.625
21
-39.8375
0
LINE
8
0
10
54.625
20
-26.8375
11
54.625
21
-39.8375
0
ARC
8
0
10
41.125
20
-26.8375
40
0.5
50
90
51
180
0
ARC
8
0
10
54.125
20
-26.8375
40
0.5
50
0
51
90
0
ARC
8
0
10
41.125
20
-39.8375
40
0.5
50
180
51
270
0
ARC
8
0
10
54.125
20
-39.8375
40
0.5
50
270
51
0
0
LINE
8
0
10
79.225
20
-26.3375
11
92.225
21
-26.3375
0
LINE
8
0
10
79.225
20
-40.3375
11
92.225
21
-40.3375
0
LINE
8
0
10
78.725
20
-26.8375
11
78.725
21
-39.8375
0
LINE
8
0
10
92.725
20
-26.8375
11
92.725
21
-39.8375
0
ARC
8
0
10
79.225
20
-26.8375
40
0.5
50
90
51
180
0
ARC
8
0
10
92.225
20
-26.8375
40
0.5
50
0
51
90
0
ARC
8
0
10
79.225
20
-39.8375
40
0.5
50
180
51
270
0
ARC
8
0
10
92.225
20
-39.8375
40
0.5
50
270
51
0
0
LINE
8
0
10
98.275
20
-26.3375
11
111.275
21
-26.3375
0
LINE
8
0
10
98.275
20
-40.3375
11
111.275
21
-40.3375
0
LINE
8
0
10
97.775
20
-26.8375
11
97.775
21
-39.8375
0
LINE
8
0
10
111.775
20
-26.8375
11
111.775
21
-39.8375
0
ARC
8
0
10
98.275
20
-26.8375
40
0.5
50
90
51
180
0
ARC
8
0
10
111.275
20
-26.8375
40
0.5
50
0
51
90
0
ARC
8
0
10
98.275
20
-39.8375
40
0.5
50
180
51
270
0
ARC
8
0
10
111.275
20
-39.8375
40
0.5
50
270
51
0
0
LINE
8
0
10
3.025
20
-35.8625
11
16.025
21
-35.8625
0
LINE
8
0
10
3.025
20
-49.8625
11
16.025
21
-49.8625
0
LINE
8
0
10
2.525
20
-36.3625
11
2.525
21
-49.3625
0
LINE
8
0
10
16.525
20
-36.3625
11
16.525
21
-49.3625
0
ARC
8
0
10
3.025
20
-36.3625
40
0.5
50
90
51
180
0
ARC
8
0
10
16.025
20
-36.3625
40
0.5
50
0
51
90
0
ARC
8
0
10
3.025
20
-49.3625
40
0.5
50
180
51
270
0
ARC
8
0
10
16.025
20
-49.3625
40
0.5
50
270
51
0
0
LINE
8
0
10
22.075
20
-35.8625
11
35.075
21
-35.8625
0
LINE
8
0
10
22.075
20
-49.8625
11
35.075
21
-49.8625
0
LINE
8
0
10
21.575
20
-36.3625
11
21.575
21
-49.3625
0
LINE
8
0
10
35.575
20
-36.3625
11
35.575
21
-49.3625
0
ARC
8
0
10
22.075
20
-36.3625
40
0.5
50
90
51
180
0
ARC
8
0
10
35.075
20
-36.3625
40
0.5
50
0
51
90
0
ARC
8
0
10
22.075
20
-49.3625
40
0.5
50
180
51
270
0
ARC
8
0
10
35.075
20
-49.3625
40
0.5
50
270
51
0
0
LINE
8
0
10
60.175
20
-40.625
11
73.175
21
-40.625
0
LINE
8
0
10
60.175
20
-54.625
11
73.175
21
-54.625
0
LINE
8
0
10
59.675
20
-41.125
11
59.675
21
-54.125
0
LINE
8
0
10
73.675
20
-41.125
11
73.675
21
-54.125
0
ARC
8
0
10
60.175
20
-41.125
40
0.5
50
90
51
180
0
ARC
8
0
10
73.175
20
-41.125
40
0.5
50
0
51
90
0
ARC
8
0
10
60.175
20
-54.125
40
0.5
50
180
51
270
0
ARC
8
0
10
73.175
20
-54.125
40
0.5
50
270
51
0
0
LINE
8
0
10
41.125
20
-45.3875
11
54.125
21
-45.3875
0
LINE
8
0
10
41.125
20
-59.3875
11
54.125
21
-59.3875
0
LINE
8
0
10
40.625
20
-45.8875
11
40.625
21
-58.8875
0
LINE
8
0
10
54.625
20
-45.8875
11
54.625
21
-58.8875
0
ARC
8
0
10
41.125
20
-45.8875
40
0.5
50
90
51
180
0
ARC
8
0
10
54.125
20
-45.8875
40
0.5
50
0
51
90
0
ARC
8
0
10
41.125
20
-58.8875
40
0.5
50
180
51
270
0
ARC
8
0
10
54.125
20
-58.8875
40
0.5
50
270
51
0
0
LINE
8
0
10
79.225
20
-45.3875
11
92.225
21
-45.3875
0
LINE
8
0
10
79.225
20
-59.3875
11
92.225
21
-59.3875
0
LINE
8
0
10
78.725
20
-45.8875
11
78.725
21
-58.8875
0
LINE
8
0
10
92.725
20
-45.8875
11
92.725
21
-58.8875
0
ARC
8
0
10
79.225
20
-45.8875
40
0.5
50
90
51
180
0
ARC
8
0
10
92.225
20
-45.8875
40
0.5
50
0
51
90
0
ARC
8
0
10
79.225
20
-58.8875
40
0.5
50
180
51
270
0
ARC
8
0
10
92.225
20
-58.8875
40
0.5
50
270
51
0
0
LINE
8
0
10
98.275
20
-45.3875
11
111.275
21
-45.3875
0
LINE
8
0
10
98.275
20
-59.3875
11
111.275
21
-59.3875
0
LINE
8
0
10
97.775
20
-45.8875
11
97.775
21
-58.8875
0
LINE
8
0
10
111.775
20
-45.8875
11
111.775
21
-58.8875
0
ARC
8
0
10
98.275
20
-45.8875
40
0.5
50
90
51
180
0
ARC
8
0
10
111.275
20
-45.8875
40
0.5
50
0
51
90
0
ARC
8
0
10
98.275
20
-58.8875
40
0.5
50
180
51
270
0
ARC
8
0
10
111.275
20
-58.8875
40
0.5
50
270
51
0
0
LINE
8
0
10
3.025
20
-54.9125
11
16.025
21
-54.9125
0
LINE
8
0
10
3.025
20
-68.9125
11
16.025
21
-68.9125
0
LINE
8
0
10
2.525
20
-55.4125
11
2.525
21
-68.4125
0
LINE
8
0
10
16.525
20
-55.4125
11
16.525
21
-68.4125
0
ARC
8
0
10
3.025
20
-55.4125
40
0.5
50
90
51
180
0
ARC
8
0
10
16.025
20
-55.4125
40
0.5
50
0
51
90
0
ARC
8
0
10
3.025
20
-68.4125
40
0.5
50
180
51
270
0
ARC
8
0
10
16.025
20
-68.4125
40
0.5
50
270
51
0
0
LINE
8
0
10
22.075
20
-54.9125
11
35.075
21
-54.9125
0
LINE
8
0
10
22.075
20
-68.9125
11
35.075
21
-68.9125
0
LINE
8
0
10
21.575
20
-55.4125
11
21.575
21
-68.4125
0
LINE
8
0
10
35.575
20
-55.4125
11
35.575
21
-68.4125
0
ARC
8
0
10
22.075
20
-55.4125
40
0.5
50
90
51
180
0
ARC
8
0
10
35.075
20
-55.4125
40
0.5
50
0
51
90
0
ARC
8
0
10
22.075
20
-68.4125
40
0.5
50
180
51
270
0
ARC
8
0
10
35.075
20
-68.4125
40
0.5
50
270
51
0
0
LINE
8
0
10
103.0375
20
-69.2
11
116.0375
21
-69.2
0
LINE
8
0
10
103.0375
20
-83.2
11
116.0375
21
-83.2
0
LINE
8
0
10
102.5375
20
-69.7
11
102.5375
21
-82.7
0
LINE
8
0
10
116.5375
20
-69.7
11
116.5375
21
-82.7
0
ARC
8
0
10
103.0375
20
-69.7
40
0.5
50
90
51
180
0
ARC
8
0
10
116.0375
20
-69.7
40
0.5
50
0
51
90
0
ARC
8
0
10
103.0375
20
-82.7
40
0.5
50
180
51
270
0
ARC
8
0
10
116.0375
20
-82.7
40
0.5
50
270
51
0
0
LINE
8
0
10
0
20
-85.725
11
119.0625
21
-85.725
0
LINE
8
0
10
0
20
0
11
119.0625
21
0
0
LINE
8
0
10
0
20
-85.725
11
0
21
0
0
LINE
8
0
10
119.0625
20
-85.725
11
119.0625
21
0
0
ENDSEC
0
EOF