<svg width="348" height="108" viewBox="0 0 348 108" fill="none" xmlns="http://www.w3.org/2000/svg">
<g clip-path="url(#clip0_6_2)">
<path d="M10.66 44.96V11.12H20.74V15.26H15.16V40.82H20.74V44.96H10.66ZM31.0579 47.48V43.736H36.9259C37.9339 43.736 38.6899 43.484 39.1939 42.98C39.6979 42.5 39.9499 41.804 39.9499 40.892V39.416L40.0219 35.708H39.0499L40.0219 34.736C40.0219 36.344 39.5419 37.604 38.5819 38.516C37.6459 39.404 36.3739 39.848 34.7659 39.848C32.7499 39.848 31.1419 39.164 29.9419 37.796C28.7659 36.428 28.1779 34.58 28.1779 32.252V28.4C28.1779 26.096 28.7659 24.26 29.9419 22.892C31.1419 21.524 32.7499 20.84 34.7659 20.84C36.3739 20.84 37.6459 21.296 38.5819 22.208C39.5419 23.096 40.0219 24.344 40.0219 25.952L39.0499 24.98H40.0219L39.9139 21.2H44.4139V41C44.4139 42.992 43.7539 44.564 42.4339 45.716C41.1139 46.892 39.3019 47.48 36.9979 47.48H31.0579ZM36.2779 35.96C37.4299 35.96 38.3179 35.624 38.9419 34.952C39.5899 34.256 39.9139 33.296 39.9139 32.072V28.616C39.9139 27.392 39.5899 26.444 38.9419 25.772C38.3179 25.076 37.4299 24.728 36.2779 24.728C35.1259 24.728 34.2379 25.064 33.6139 25.736C32.9899 26.408 32.6779 27.368 32.6779 28.616V32.072C32.6779 33.32 32.9899 34.28 33.6139 34.952C34.2379 35.624 35.1259 35.96 36.2779 35.96ZM60.9959 41C59.6999 41 58.5599 40.736 57.5759 40.208C56.6159 39.68 55.8599 38.936 55.3079 37.976C54.7559 36.992 54.4799 35.864 54.4799 34.592V18.788H48.1439V14.72H58.9799V34.592C58.9799 35.312 59.1839 35.888 59.5919 36.32C60.0239 36.728 60.5999 36.932 61.3199 36.932H67.2959V41H60.9959ZM74.7338 47.48L77.5058 39.92L70.1258 21.2H75.0578L78.7298 31.316C78.9218 31.868 79.1138 32.54 79.3058 33.332C79.4978 34.1 79.6418 34.736 79.7378 35.24C79.8578 34.736 80.0138 34.1 80.2058 33.332C80.3978 32.54 80.5898 31.868 80.7818 31.316L84.2378 21.2H88.9898L79.4498 47.48H74.7338ZM93.1158 47.48V21.2H97.5078V24.98H98.5158L97.5078 26.024C97.5078 24.416 97.9878 23.156 98.9478 22.244C99.9078 21.308 101.204 20.84 102.836 20.84C104.828 20.84 106.424 21.524 107.624 22.892C108.824 24.26 109.424 26.096 109.424 28.4V33.764C109.424 35.3 109.148 36.644 108.596 37.796C108.068 38.924 107.312 39.8 106.328 40.424C105.344 41.048 104.18 41.36 102.836 41.36C101.204 41.36 99.9078 40.904 98.9478 39.992C97.9878 39.056 97.5078 37.784 97.5078 36.176L98.5158 37.22H97.4718L97.6158 41.936V47.48H93.1158ZM101.252 37.472C102.404 37.472 103.304 37.136 103.952 36.464C104.6 35.792 104.924 34.832 104.924 33.584V28.616C104.924 27.368 104.6 26.408 103.952 25.736C103.304 25.064 102.404 24.728 101.252 24.728C100.124 24.728 99.2358 25.076 98.5878 25.772C97.9398 26.444 97.6158 27.392 97.6158 28.616V33.584C97.6158 34.808 97.9398 35.768 98.5878 36.464C99.2358 37.136 100.124 37.472 101.252 37.472ZM114.702 41V14.72H119.202V21.2L119.094 24.98H120.318L119.094 26.024C119.094 24.392 119.562 23.12 120.498 22.208C121.458 21.296 122.766 20.84 124.422 20.84C126.366 20.84 127.914 21.488 129.066 22.784C130.242 24.08 130.83 25.82 130.83 28.004V41H126.33V28.472C126.33 27.272 126.018 26.348 125.394 25.7C124.77 25.052 123.894 24.728 122.766 24.728C121.662 24.728 120.786 25.064 120.138 25.736C119.514 26.408 119.202 27.368 119.202 28.616V41H114.702ZM138.376 44.96V40.82H143.956V15.26H138.376V11.12H148.456V44.96H138.376ZM159.162 41L157.242 30H158.822L160.082 37.62C160.148 38.0333 160.208 38.4467 160.262 38.86C160.315 39.26 160.355 39.5733 160.382 39.8C160.488 39.5733 160.628 39.26 160.802 38.86C160.988 38.4467 161.188 38.0333 161.402 37.62L165.002 30H166.682L161.282 41H159.162ZM172.174 41.2C171.294 41.2 170.554 41.0267 169.954 40.68C169.367 40.32 168.947 39.82 168.694 39.18C168.44 38.5267 168.38 37.7667 168.514 36.9L169.534 30.5C169.68 29.62 169.98 28.86 170.434 28.22C170.887 27.58 171.467 27.0867 172.174 26.74C172.88 26.38 173.674 26.2 174.554 26.2C175.447 26.2 176.187 26.38 176.774 26.74C177.374 27.0867 177.8 27.58 178.054 28.22C178.307 28.86 178.36 29.62 178.214 30.5L177.194 36.9C177.06 37.78 176.76 38.54 176.294 39.18C175.84 39.82 175.26 40.32 174.554 40.68C173.847 41.0267 173.054 41.2 172.174 41.2ZM172.414 39.8C173.254 39.8 173.96 39.5333 174.534 39C175.12 38.4667 175.48 37.7667 175.614 36.9L176.634 30.5C176.78 29.6333 176.64 28.9333 176.214 28.4C175.8 27.8667 175.174 27.6 174.334 27.6C173.494 27.6 172.78 27.8667 172.194 28.4C171.607 28.9333 171.247 29.6333 171.114 30.5L170.094 36.9C169.947 37.7667 170.087 38.4667 170.514 39C170.94 39.5333 171.574 39.8 172.414 39.8ZM173.394 34.82C173.047 34.82 172.767 34.7133 172.554 34.5C172.34 34.2733 172.234 33.9867 172.234 33.64C172.234 33.2933 172.34 33.02 172.554 32.82C172.767 32.6067 173.047 32.5 173.394 32.5C173.74 32.5 174.014 32.6067 174.214 32.82C174.427 33.02 174.534 33.2933 174.534 33.64C174.534 33.9867 174.427 34.2733 174.214 34.5C174.014 34.7133 173.74 34.82 173.394 34.82ZM215.828 45.5C212.636 44.66 210.368 43.088 209.024 40.784C207.704 38.48 207.332 35.492 207.908 31.82L209.132 24.26C209.516 21.812 210.236 19.664 211.292 17.816C212.348 15.968 213.716 14.444 215.396 13.244C217.1 12.02 219.092 11.132 221.372 10.58L221.084 12.38C219.284 12.812 217.688 13.568 216.296 14.648C214.928 15.704 213.8 17.048 212.912 18.68C212.048 20.288 211.448 22.148 211.112 24.26L209.888 31.82C209.576 33.884 209.612 35.732 209.996 37.364C210.38 38.996 211.088 40.352 212.12 41.432C213.152 42.512 214.484 43.268 216.116 43.7L215.828 45.5ZM225.246 41L228.378 21.2H230.178L229.746 23.9H230.538L229.134 26.24C229.398 24.536 230.106 23.216 231.258 22.28C232.434 21.32 233.91 20.84 235.686 20.84C237.798 20.84 239.358 21.488 240.366 22.784C241.374 24.08 241.71 25.832 241.374 28.04L241.194 29.12H239.214L239.394 28.04C239.682 26.264 239.454 24.884 238.71 23.9C237.966 22.892 236.778 22.388 235.146 22.388C233.538 22.388 232.194 22.892 231.114 23.9C230.058 24.884 229.386 26.264 229.098 28.04L227.046 41H225.246ZM245.68 41L245.932 39.38H253.168L255.796 22.82H249.46L249.712 21.2H257.848L254.968 39.38H261.772L261.52 41H245.68ZM257.632 17.42C257.008 17.42 256.504 17.24 256.12 16.88C255.736 16.52 255.544 16.04 255.544 15.44C255.544 14.84 255.736 14.36 256.12 14C256.504 13.64 257.008 13.46 257.632 13.46C258.256 13.46 258.76 13.64 259.144 14C259.528 14.36 259.72 14.84 259.72 15.44C259.72 16.04 259.528 16.52 259.144 16.88C258.76 17.24 258.256 17.42 257.632 17.42ZM269.066 47.48L269.354 45.86H274.574C275.99 45.86 277.13 45.488 277.994 44.744C278.858 44.024 279.398 42.956 279.614 41.54L279.866 39.92L280.514 35.78H279.866L281.018 34.16C280.778 35.792 280.046 37.1 278.822 38.084C277.598 39.068 276.122 39.56 274.394 39.56C272.426 39.56 270.95 38.912 269.966 37.616C268.982 36.296 268.658 34.556 268.994 32.396L269.678 28.04C269.918 26.6 270.386 25.34 271.082 24.26C271.802 23.18 272.702 22.34 273.782 21.74C274.862 21.14 276.062 20.84 277.382 20.84C279.11 20.84 280.418 21.332 281.306 22.316C282.218 23.3 282.542 24.608 282.278 26.24L281.81 24.62H282.278L282.818 21.2H284.618L281.414 41.54C281.102 43.508 280.334 44.984 279.11 45.968C277.91 46.976 276.302 47.48 274.286 47.48H269.066ZM275.006 38.012C276.638 38.012 277.982 37.52 279.038 36.536C280.118 35.528 280.79 34.148 281.054 32.396L281.738 28.04C282.002 26.264 281.762 24.884 281.018 23.9C280.298 22.892 279.122 22.388 277.49 22.388C275.882 22.388 274.538 22.892 273.458 23.9C272.402 24.884 271.742 26.264 271.478 28.04L270.794 32.396C270.53 34.148 270.758 35.528 271.478 36.536C272.222 37.52 273.398 38.012 275.006 38.012ZM289.392 41L293.568 14.72H295.368L294.504 20.12L293.856 24.08H294.684L293.28 26.24C293.544 24.608 294.276 23.3 295.476 22.316C296.7 21.332 298.176 20.84 299.904 20.84C301.848 20.84 303.3 21.464 304.26 22.712C305.244 23.96 305.568 25.652 305.232 27.788L303.144 41H301.344L303.396 28.04C303.684 26.264 303.456 24.884 302.712 23.9C301.992 22.892 300.852 22.388 299.292 22.388C297.708 22.388 296.364 22.892 295.26 23.9C294.18 24.908 293.508 26.288 293.244 28.04L291.192 41H289.392ZM319.978 41C318.466 41 317.362 40.616 316.666 39.848C315.994 39.08 315.778 37.964 316.018 36.5L318.178 22.82H312.418L312.67 21.2H318.43L319.294 15.8H321.094L320.23 21.2H328.33L328.078 22.82H319.978L317.818 36.5C317.53 38.42 318.334 39.38 320.23 39.38H325.09L324.838 41H319.978ZM332.024 45.5L332.312 43.7C334.088 43.268 335.66 42.512 337.028 41.432C338.42 40.352 339.56 38.996 340.448 37.364C341.36 35.732 341.972 33.884 342.284 31.82L343.508 24.26C343.844 22.148 343.82 20.288 343.436 18.68C343.052 17.048 342.344 15.704 341.312 14.648C340.28 13.568 338.936 12.812 337.28 12.38L337.568 10.58C339.704 11.132 341.42 12.02 342.716 13.244C344.012 14.444 344.888 15.968 345.344 17.816C345.824 19.664 345.872 21.812 345.488 24.26L344.264 31.82C343.88 34.268 343.16 36.416 342.104 38.264C341.048 40.112 339.68 41.636 338 42.836C336.32 44.06 334.328 44.948 332.024 45.5Z" fill="white"/>
<path d="M60.04 89V87.032H64.72V77.768H60.64V75.8H66.88V87.032H71.32V89H60.04ZM65.56 73.424C65.032 73.424 64.616 73.288 64.312 73.016C64.008 72.744 63.856 72.376 63.856 71.912C63.856 71.432 64.008 71.056 64.312 70.784C64.616 70.496 65.032 70.352 65.56 70.352C66.088 70.352 66.504 70.496 66.808 70.784C67.112 71.056 67.264 71.432 67.264 71.912C67.264 72.376 67.112 72.744 66.808 73.016C66.504 73.288 66.088 73.424 65.56 73.424ZM79.1826 89.192C78.2866 89.192 77.5026 89.056 76.8306 88.784C76.1746 88.496 75.6466 88.096 75.2466 87.584C74.8626 87.072 74.6306 86.464 74.5506 85.76H76.7106C76.8066 86.224 77.0626 86.592 77.4786 86.864C77.9106 87.136 78.4786 87.272 79.1826 87.272H80.1906C81.0386 87.272 81.6706 87.104 82.0866 86.768C82.5026 86.416 82.7106 85.952 82.7106 85.376C82.7106 84.816 82.5186 84.376 82.1346 84.056C81.7666 83.72 81.2146 83.496 80.4786 83.384L78.7026 83.096C77.4066 82.872 76.4386 82.472 75.7986 81.896C75.1746 81.304 74.8626 80.448 74.8626 79.328C74.8626 78.144 75.2386 77.232 75.9906 76.592C76.7426 75.936 77.8706 75.608 79.3746 75.608H80.2866C81.5506 75.608 82.5666 75.904 83.3346 76.496C84.1026 77.088 84.5666 77.888 84.7266 78.896H82.5666C82.4706 78.48 82.2306 78.152 81.8466 77.912C81.4626 77.656 80.9426 77.528 80.2866 77.528H79.3746C78.5586 77.528 77.9586 77.68 77.5746 77.984C77.2066 78.288 77.0226 78.744 77.0226 79.352C77.0226 79.896 77.1826 80.296 77.5026 80.552C77.8226 80.808 78.3266 80.992 79.0146 81.104L80.7906 81.392C82.2146 81.616 83.2466 82.032 83.8866 82.64C84.5426 83.248 84.8706 84.128 84.8706 85.28C84.8706 86.496 84.4786 87.456 83.6946 88.16C82.9266 88.848 81.7586 89.192 80.1906 89.192H79.1826ZM93.9813 89.24C93.3733 89.24 92.8853 89.064 92.5173 88.712C92.1653 88.36 91.9893 87.888 91.9893 87.296C91.9893 86.672 92.1653 86.176 92.5173 85.808C92.8853 85.44 93.3733 85.256 93.9813 85.256C94.5893 85.256 95.0693 85.44 95.4213 85.808C95.7893 86.176 95.9733 86.672 95.9733 87.296C95.9733 87.888 95.7893 88.36 95.4213 88.712C95.0693 89.064 94.5893 89.24 93.9813 89.24ZM105.036 93.32V91.352H109.236C109.908 91.352 110.396 91.2 110.7 90.896C111.02 90.592 111.18 90.12 111.18 89.48V87.8L111.228 85.4H110.796L111.204 85.04C111.204 86 110.884 86.76 110.244 87.32C109.604 87.88 108.748 88.16 107.676 88.16C106.316 88.16 105.244 87.72 104.46 86.84C103.676 85.944 103.284 84.744 103.284 83.24V80.456C103.284 78.952 103.676 77.76 104.46 76.88C105.244 76 106.316 75.56 107.676 75.56C108.748 75.56 109.604 75.84 110.244 76.4C110.884 76.96 111.204 77.72 111.204 78.68L110.796 78.32H111.204V75.8H113.34V89.48C113.34 90.664 112.972 91.6 112.236 92.288C111.516 92.976 110.508 93.32 109.212 93.32H105.036ZM108.324 86.288C109.22 86.288 109.924 86.008 110.436 85.448C110.948 84.888 111.204 84.112 111.204 83.12V80.6C111.204 79.608 110.948 78.832 110.436 78.272C109.924 77.712 109.22 77.432 108.324 77.432C107.412 77.432 106.7 77.704 106.188 78.248C105.692 78.792 105.444 79.576 105.444 80.6V83.12C105.444 84.144 105.692 84.928 106.188 85.472C106.7 86.016 107.412 86.288 108.324 86.288ZM121.995 89.24C120.683 89.24 119.619 88.8 118.803 87.92C118.003 87.04 117.603 85.848 117.603 84.344V80.48C117.603 78.96 118.003 77.76 118.803 76.88C119.603 76 120.667 75.56 121.995 75.56C123.083 75.56 123.955 75.856 124.611 76.448C125.267 77.04 125.595 77.832 125.595 78.824L125.163 78.32H125.643L125.595 75.32V71.48H127.755V89H125.595V86.48H125.163L125.595 85.976C125.595 86.984 125.267 87.784 124.611 88.376C123.955 88.952 123.083 89.24 121.995 89.24ZM122.715 87.368C123.611 87.368 124.315 87.088 124.827 86.528C125.339 85.968 125.595 85.192 125.595 84.2V80.6C125.595 79.608 125.339 78.832 124.827 78.272C124.315 77.712 123.611 77.432 122.715 77.432C121.803 77.432 121.083 77.704 120.555 78.248C120.027 78.792 119.763 79.576 119.763 80.6V84.2C119.763 85.224 120.027 86.008 120.555 86.552C121.083 87.096 121.803 87.368 122.715 87.368ZM131.753 91.64L140.273 69.08H142.553L134.033 91.64H131.753ZM148.208 93.32V91.352H152.408C153.08 91.352 153.568 91.2 153.872 90.896C154.192 90.592 154.352 90.12 154.352 89.48V87.8L154.4 85.4H153.968L154.376 85.04C154.376 86 154.056 86.76 153.416 87.32C152.776 87.88 151.92 88.16 150.848 88.16C149.488 88.16 148.416 87.72 147.632 86.84C146.848 85.944 146.456 84.744 146.456 83.24V80.456C146.456 78.952 146.848 77.76 147.632 76.88C148.416 76 149.488 75.56 150.848 75.56C151.92 75.56 152.776 75.84 153.416 76.4C154.056 76.96 154.376 77.72 154.376 78.68L153.968 78.32H154.376V75.8H156.512V89.48C156.512 90.664 156.144 91.6 155.408 92.288C154.688 92.976 153.68 93.32 152.384 93.32H148.208ZM151.496 86.288C152.392 86.288 153.096 86.008 153.608 85.448C154.12 84.888 154.376 84.112 154.376 83.12V80.6C154.376 79.608 154.12 78.832 153.608 78.272C153.096 77.712 152.392 77.432 151.496 77.432C150.584 77.432 149.872 77.704 149.36 78.248C148.864 78.792 148.616 79.576 148.616 80.6V83.12C148.616 84.144 148.864 84.928 149.36 85.472C149.872 86.016 150.584 86.288 151.496 86.288ZM167.734 89C166.966 89 166.294 88.848 165.718 88.544C165.142 88.24 164.694 87.808 164.374 87.248C164.054 86.688 163.894 86.032 163.894 85.28V73.448H159.454V71.48H166.054V85.28C166.054 85.824 166.206 86.256 166.51 86.576C166.814 86.88 167.222 87.032 167.734 87.032H171.934V89H167.734ZM177.397 93.32L179.341 88.184L174.445 75.8H176.845L179.917 83.96C180.029 84.232 180.133 84.56 180.229 84.944C180.325 85.312 180.405 85.624 180.469 85.88C180.533 85.624 180.613 85.312 180.709 84.944C180.805 84.56 180.901 84.232 180.997 83.96L183.877 75.8H186.205L179.701 93.32H177.397ZM189.724 93.32V75.8H191.884V78.32H192.316L191.884 78.824C191.884 77.816 192.212 77.024 192.868 76.448C193.54 75.856 194.42 75.56 195.508 75.56C196.836 75.56 197.892 76 198.676 76.88C199.476 77.744 199.876 78.936 199.876 80.456V84.32C199.876 85.328 199.692 86.2 199.324 86.936C198.972 87.672 198.468 88.24 197.812 88.64C197.172 89.04 196.404 89.24 195.508 89.24C194.436 89.24 193.564 88.944 192.892 88.352C192.22 87.76 191.884 86.968 191.884 85.976L192.316 86.48H191.836L191.884 89.48V93.32H189.724ZM194.788 87.368C195.7 87.368 196.412 87.096 196.924 86.552C197.452 86.008 197.716 85.224 197.716 84.2V80.6C197.716 79.576 197.452 78.792 196.924 78.248C196.412 77.704 195.7 77.432 194.788 77.432C193.908 77.432 193.204 77.712 192.676 78.272C192.148 78.832 191.884 79.608 191.884 80.6V84.2C191.884 85.192 192.148 85.968 192.676 86.528C193.204 87.088 193.908 87.368 194.788 87.368ZM204.114 89V71.48H206.274V75.8V78.32H206.73L206.274 78.824C206.274 77.784 206.586 76.984 207.21 76.424C207.834 75.848 208.698 75.56 209.802 75.56C211.13 75.56 212.186 75.968 212.97 76.784C213.754 77.6 214.146 78.712 214.146 80.12V89H211.986V80.36C211.986 79.416 211.73 78.688 211.218 78.176C210.722 77.648 210.042 77.384 209.178 77.384C208.282 77.384 207.57 77.664 207.042 78.224C206.53 78.784 206.274 79.576 206.274 80.6V89H204.114ZM218.577 89V71.48H220.737V81.248H223.281L227.121 75.8H229.593L225.153 82.088L229.665 89H227.145L223.305 83.12H220.737V89H218.577ZM238.656 89.24C237.568 89.24 236.696 88.952 236.04 88.376C235.384 87.784 235.056 86.984 235.056 85.976L235.488 86.48H235.056V89H232.896V71.48H235.056V75.32L235.008 78.32H235.488L235.056 78.824C235.056 77.832 235.384 77.04 236.04 76.448C236.712 75.856 237.584 75.56 238.656 75.56C239.984 75.56 241.048 76 241.848 76.88C242.648 77.76 243.048 78.96 243.048 80.48V84.344C243.048 85.848 242.648 87.04 241.848 87.92C241.048 88.8 239.984 89.24 238.656 89.24ZM237.936 87.368C238.848 87.368 239.568 87.096 240.096 86.552C240.624 86.008 240.888 85.224 240.888 84.2V80.6C240.888 79.576 240.624 78.792 240.096 78.248C239.568 77.704 238.848 77.432 237.936 77.432C237.056 77.432 236.352 77.712 235.824 78.272C235.312 78.832 235.056 79.608 235.056 80.6V84.2C235.056 85.192 235.312 85.968 235.824 86.528C236.352 87.088 237.056 87.368 237.936 87.368Z" fill="white"/>
<path d="M45.81 79.0316L41.5126 78.2339C41.408 78.2143 41.2935 78.1162 41.2582 78.0154L39.941 74.9478C39.8918 74.853 39.9012 74.7043 39.9619 74.6161L42.4657 70.9733C42.5256 70.8856 42.5138 70.7523 42.4383 70.6768L39.311 67.5551C39.2354 67.4797 39.1021 67.4675 39.0143 67.5277L35.3009 70.0714C35.2131 70.1317 35.0625 70.1424 34.9671 70.0955L31.988 68.8781C31.8869 68.8447 31.7883 68.7317 31.7684 68.6271L30.9411 64.1902C30.9217 64.0856 30.8185 64 30.7118 64H26.2887C26.1823 64 26.0791 64.0856 26.0597 64.1902L25.2326 68.6271C25.2127 68.7317 25.1144 68.8447 25.013 68.8781L22.0337 70.0955C21.938 70.1424 21.7874 70.1317 21.6999 70.0714L17.9868 67.5277C17.8987 67.4675 17.7651 67.4797 17.6898 67.5551L14.5623 70.6768C14.487 70.7523 14.4744 70.8856 14.5348 70.9733L17.0389 74.6161C17.099 74.7043 17.1084 74.853 17.0595 74.9478L15.742 78.0154C15.707 78.1162 15.5928 78.2143 15.4877 78.2339L11.1906 79.0316C11.0855 79.0514 11 79.1542 11 79.2607L11.0003 83.6756C11.0003 83.7821 11.086 83.8857 11.1908 83.9047L15.3826 84.6834C15.4874 84.7025 15.5996 84.8019 15.6314 84.9034L16.9401 88.1665C16.9869 88.2623 16.9759 88.4121 16.9152 88.4998L14.5343 91.9633C14.4742 92.051 14.4865 92.1846 14.5617 92.26L17.6895 95.3817C17.7648 95.4566 17.8984 95.4688 17.9865 95.4091L21.3948 93.0739C21.4826 93.0139 21.6298 93.0092 21.7216 93.0627L23.2247 93.8638C23.3198 93.9123 23.431 93.8713 23.4717 93.773L26.571 86.2976C26.6121 86.1992 26.571 86.0737 26.4801 86.0181L26.1039 85.7883C26.0344 85.746 25.94 85.6732 25.866 85.6064C24.509 84.739 23.6087 83.2216 23.6087 81.4936C23.6087 78.797 25.7988 76.611 28.5 76.611C31.2012 76.611 33.391 78.797 33.391 81.4936C33.391 83.2216 32.491 84.739 31.1337 85.6064C31.0603 85.6732 30.9656 85.746 30.8964 85.7883L30.5202 86.0181C30.4297 86.0737 30.3884 86.1992 30.4292 86.2976L33.5283 93.7732C33.569 93.8716 33.6799 93.9123 33.7753 93.864L35.2784 93.0629C35.3704 93.0094 35.5174 93.0139 35.6052 93.0741L39.0138 95.4094C39.1016 95.4691 39.2354 95.4568 39.3105 95.382L42.4383 92.2602C42.5138 92.1848 42.5261 92.0512 42.4657 91.9636L40.0845 88.5C40.0244 88.4123 40.0131 88.2626 40.0599 88.1668L41.3686 84.9036C41.4007 84.8021 41.5121 84.7027 41.6172 84.6837L45.8089 83.905C45.9135 83.886 45.9995 83.7824 45.9995 83.6759L46 79.2609C46.0003 79.1542 45.9145 79.0514 45.81 79.0316Z" fill="white"/>
</g>
<defs>
<clipPath id="clip0_6_2">
<rect width="348" height="108" fill="white"/>
</clipPath>
</defs>
</svg>
